<svg xmlns="http://www.w3.org/2000/svg" xmlns:xlink="http://www.w3.org/1999/xlink" width="500" zoomAndPan="magnify" viewBox="0 0 375 374.999991" height="500" preserveAspectRatio="xMidYMid meet" version="1.0"><defs><clipPath id="1973f29680"><path d="M 0 30.347656 L 375 30.347656 L 375 325 L 0 325 Z M 0 30.347656 " clip-rule="nonzero"/></clipPath><clipPath id="50bad005a7"><path d="M 193 335 L 363 335 L 363 344.597656 L 193 344.597656 Z M 193 335 " clip-rule="nonzero"/></clipPath></defs><path fill="#a6a6a6" d="M 340.601562 146.398438 C 337.402344 147.035156 334.210938 147.652344 331.023438 148.269531 C 330.773438 148.3125 306.699219 152.589844 258.792969 161.101562 C 237.554688 164.636719 216.332031 168.277344 195.144531 172.097656 C 193.878906 172.324219 192.648438 172.640625 191.5 173.066406 L 191.542969 173.050781 C 183.472656 174.484375 175.058594 175.980469 166.285156 177.535156 L 166.335938 177.542969 C 165.996094 177.503906 165.640625 177.488281 165.28125 177.5 C 154.210938 179.699219 143.222656 181.671875 132.234375 184.203125 C 128.726562 185.011719 125.886719 188.832031 126.167969 196.382812 C 126.21875 197.722656 126.367188 198.898438 126.605469 199.914062 C 126.59375 199.855469 126.582031 199.796875 126.5625 199.738281 C 126.628906 217.351562 132.191406 231.902344 143.25 243.382812 L 143.238281 243.371094 C 145.542969 245.882812 149.042969 246.800781 153 246.234375 C 166.195312 244.351562 179.382812 242.414062 192.554688 240.359375 L 192.558594 240.359375 L 257.515625 231.019531 L 257.402344 231.019531 C 257.828125 231.007812 258.25 230.988281 258.671875 230.960938 C 289.894531 226.300781 320.386719 221.886719 350.8125 217.082031 C 356.902344 216.117188 362.757812 213.097656 361.980469 205.667969 C 361.984375 205.71875 361.988281 205.769531 361.996094 205.820312 C 365.832031 190.292969 360.515625 171.707031 346.035156 150.054688 C 346.054688 150.105469 346.074219 150.160156 346.09375 150.210938 C 345.042969 147.234375 342.96875 146.347656 340.601562 146.398438 Z M 346.828125 155.679688 C 346.828125 155.5625 346.828125 155.453125 346.828125 155.339844 C 346.828125 155.453125 346.828125 155.5625 346.828125 155.679688 Z M 346.828125 155.320312 C 346.828125 155.21875 346.824219 155.117188 346.824219 155.015625 C 346.828125 155.117188 346.828125 155.21875 346.828125 155.320312 Z M 346.824219 154.992188 C 346.820312 154.890625 346.820312 154.792969 346.820312 154.691406 C 346.820312 154.792969 346.824219 154.894531 346.824219 154.992188 Z M 346.816406 154.652344 C 346.8125 154.550781 346.808594 154.453125 346.804688 154.351562 C 346.804688 154.453125 346.8125 154.550781 346.816406 154.652344 Z M 346.804688 154.335938 C 346.800781 154.234375 346.792969 154.132812 346.785156 154.035156 C 346.792969 154.132812 346.796875 154.234375 346.804688 154.335938 Z M 346.785156 154.027344 C 346.78125 153.925781 346.773438 153.828125 346.769531 153.730469 C 346.773438 153.828125 346.78125 153.925781 346.785156 154.027344 Z M 346.769531 153.722656 C 346.761719 153.625 346.75 153.527344 346.746094 153.433594 C 346.753906 153.53125 346.761719 153.625 346.769531 153.722656 Z M 346.742188 153.421875 C 346.734375 153.328125 346.726562 153.238281 346.71875 153.144531 C 346.726562 153.238281 346.734375 153.328125 346.742188 153.421875 Z M 346.714844 153.128906 C 346.703125 153.039062 346.695312 152.945312 346.683594 152.855469 C 346.691406 152.945312 346.703125 153.039062 346.714844 153.128906 Z M 346.683594 152.851562 C 346.671875 152.761719 346.660156 152.671875 346.648438 152.585938 C 346.660156 152.671875 346.667969 152.761719 346.683594 152.851562 Z M 346.648438 152.570312 C 346.632812 152.480469 346.621094 152.394531 346.609375 152.308594 C 346.621094 152.394531 346.632812 152.480469 346.648438 152.570312 Z M 346.609375 152.308594 C 346.597656 152.222656 346.582031 152.136719 346.566406 152.050781 C 346.582031 152.136719 346.597656 152.222656 346.609375 152.308594 Z M 346.566406 152.039062 C 346.546875 151.957031 346.535156 151.875 346.519531 151.796875 C 346.535156 151.875 346.550781 151.957031 346.566406 152.039062 Z M 346.519531 151.789062 C 346.503906 151.710938 346.488281 151.628906 346.472656 151.550781 C 346.488281 151.628906 346.503906 151.710938 346.519531 151.789062 Z M 346.46875 151.542969 C 346.453125 151.46875 346.4375 151.390625 346.417969 151.320312 C 346.433594 151.390625 346.453125 151.46875 346.46875 151.542969 Z M 346.414062 151.300781 C 346.398438 151.226562 346.378906 151.148438 346.359375 151.082031 C 346.378906 151.152344 346.394531 151.226562 346.414062 151.300781 Z M 346.359375 151.0625 C 346.339844 150.992188 346.320312 150.921875 346.300781 150.851562 C 346.320312 150.921875 346.339844 150.996094 346.359375 151.0625 Z M 346.296875 150.839844 C 346.277344 150.769531 346.257812 150.699219 346.238281 150.632812 C 346.257812 150.699219 346.277344 150.769531 346.296875 150.839844 Z M 346.234375 150.621094 C 346.210938 150.550781 346.191406 150.484375 346.171875 150.417969 C 346.191406 150.484375 346.214844 150.550781 346.234375 150.621094 Z M 346.167969 150.410156 C 346.144531 150.339844 346.121094 150.273438 346.097656 150.207031 C 346.121094 150.273438 346.144531 150.339844 346.167969 150.410156 Z M 257.046875 231.019531 C 256.972656 231.019531 256.902344 231.023438 256.828125 231.023438 C 256.902344 231.023438 256.972656 231.023438 257.046875 231.019531 Z M 256.230469 231.019531 C 256.152344 231.019531 256.066406 231.019531 255.988281 231.015625 C 256.066406 231.019531 256.152344 231.019531 256.230469 231.019531 Z M 253.820312 230.847656 C 253.769531 230.839844 253.714844 230.832031 253.664062 230.824219 C 253.714844 230.832031 253.769531 230.839844 253.820312 230.847656 Z M 253.574219 230.8125 C 253.523438 230.804688 253.472656 230.796875 253.421875 230.785156 C 253.472656 230.796875 253.523438 230.800781 253.574219 230.8125 Z M 253.3125 230.769531 C 253.265625 230.761719 253.21875 230.753906 253.171875 230.746094 C 253.21875 230.753906 253.265625 230.761719 253.3125 230.769531 Z M 253.070312 230.726562 C 252.984375 230.710938 252.90625 230.695312 252.824219 230.675781 Z M 253.066406 230.726562 C 252.984375 230.710938 252.898438 230.691406 252.820312 230.671875 C 252.902344 230.691406 252.984375 230.707031 253.066406 230.726562 Z M 252.777344 230.660156 C 252.710938 230.644531 252.644531 230.632812 252.582031 230.617188 C 252.644531 230.632812 252.710938 230.648438 252.777344 230.660156 Z M 252.480469 230.589844 C 252.433594 230.574219 252.386719 230.5625 252.335938 230.550781 C 252.386719 230.5625 252.433594 230.574219 252.480469 230.589844 Z M 252.238281 230.523438 C 252.191406 230.511719 252.144531 230.5 252.097656 230.484375 C 252.144531 230.496094 252.191406 230.507812 252.238281 230.523438 Z M 251.996094 230.457031 C 251.953125 230.441406 251.910156 230.425781 251.863281 230.414062 C 251.910156 230.425781 251.953125 230.441406 251.996094 230.457031 Z M 251.757812 230.378906 C 251.710938 230.367188 251.671875 230.351562 251.628906 230.335938 C 251.671875 230.351562 251.714844 230.367188 251.757812 230.378906 Z M 251.523438 230.300781 C 251.484375 230.285156 251.4375 230.269531 251.398438 230.253906 C 251.4375 230.269531 251.484375 230.285156 251.523438 230.300781 Z M 251.289062 230.214844 C 251.246094 230.199219 251.207031 230.183594 251.160156 230.167969 C 251.203125 230.183594 251.246094 230.199219 251.289062 230.214844 Z M 251.0625 230.128906 C 251.019531 230.113281 250.976562 230.09375 250.9375 230.074219 C 250.976562 230.09375 251.023438 230.109375 251.0625 230.128906 Z M 250.835938 230.03125 C 250.792969 230.011719 250.753906 229.996094 250.710938 229.980469 C 250.753906 229.996094 250.792969 230.015625 250.835938 230.03125 Z M 250.613281 229.933594 C 250.570312 229.914062 250.53125 229.894531 250.488281 229.875 C 250.53125 229.894531 250.570312 229.914062 250.613281 229.933594 Z M 250.390625 229.828125 C 250.347656 229.808594 250.308594 229.789062 250.261719 229.765625 C 250.304688 229.789062 250.34375 229.808594 250.390625 229.828125 Z M 250.171875 229.71875 C 250.128906 229.695312 250.085938 229.671875 250.039062 229.648438 C 250.085938 229.671875 250.128906 229.695312 250.171875 229.71875 Z M 249.960938 229.601562 C 249.820312 229.519531 249.679688 229.4375 249.542969 229.351562 C 249.679688 229.4375 249.820312 229.519531 249.960938 229.601562 Z M 249.480469 229.3125 C 249.433594 229.28125 249.386719 229.25 249.339844 229.21875 C 249.390625 229.25 249.433594 229.28125 249.480469 229.3125 Z M 249.265625 229.164062 C 249.222656 229.136719 249.183594 229.109375 249.140625 229.078125 C 249.183594 229.109375 249.222656 229.136719 249.265625 229.164062 Z M 249.058594 229.019531 C 249.019531 228.992188 248.980469 228.960938 248.945312 228.933594 C 248.980469 228.960938 249.019531 228.992188 249.058594 229.019531 Z M 248.863281 228.871094 C 248.824219 228.839844 248.789062 228.8125 248.75 228.78125 C 248.785156 228.808594 248.824219 228.839844 248.863281 228.871094 Z M 248.667969 228.714844 C 248.632812 228.683594 248.597656 228.652344 248.5625 228.625 C 248.597656 228.652344 248.632812 228.683594 248.667969 228.714844 Z M 248.484375 228.554688 C 248.449219 228.523438 248.410156 228.492188 248.375 228.457031 C 248.410156 228.488281 248.445312 228.519531 248.484375 228.554688 Z M 248.300781 228.386719 C 248.265625 228.355469 248.230469 228.320312 248.199219 228.289062 C 248.230469 228.324219 248.265625 228.355469 248.300781 228.386719 Z M 248.117188 228.207031 C 248.085938 228.175781 248.054688 228.140625 248.023438 228.109375 C 248.054688 228.140625 248.085938 228.175781 248.117188 228.207031 Z M 247.941406 228.027344 C 247.910156 227.992188 247.878906 227.957031 247.84375 227.917969 C 247.875 227.953125 247.90625 227.992188 247.941406 228.027344 Z M 247.773438 227.839844 C 247.742188 227.800781 247.710938 227.765625 247.675781 227.726562 C 247.707031 227.765625 247.738281 227.800781 247.773438 227.839844 Z M 247.609375 227.644531 C 247.574219 227.601562 247.542969 227.558594 247.507812 227.515625 C 247.542969 227.558594 247.574219 227.601562 247.609375 227.644531 Z M 247.449219 227.441406 C 247.414062 227.394531 247.378906 227.347656 247.34375 227.296875 C 247.378906 227.34375 247.414062 227.394531 247.449219 227.441406 Z M 247.292969 227.230469 C 247.25 227.167969 247.207031 227.109375 247.164062 227.050781 C 247.207031 227.109375 247.246094 227.167969 247.292969 227.230469 Z M 247.136719 227.007812 C 247.089844 226.933594 247.039062 226.863281 246.992188 226.789062 C 247.039062 226.863281 247.089844 226.933594 247.136719 227.007812 Z M 246.945312 226.707031 C 246.914062 226.65625 246.886719 226.609375 246.851562 226.558594 C 246.882812 226.609375 246.914062 226.660156 246.945312 226.707031 Z M 246.792969 226.453125 C 246.765625 226.40625 246.742188 226.363281 246.714844 226.316406 C 246.742188 226.363281 246.765625 226.40625 246.792969 226.453125 Z M 246.660156 226.210938 C 246.632812 226.164062 246.609375 226.113281 246.585938 226.066406 C 246.613281 226.113281 246.636719 226.164062 246.660156 226.210938 Z M 246.53125 225.957031 C 246.507812 225.90625 246.484375 225.859375 246.460938 225.808594 C 246.484375 225.859375 246.507812 225.910156 246.53125 225.957031 Z M 246.410156 225.699219 C 246.386719 225.648438 246.363281 225.597656 246.339844 225.546875 C 246.363281 225.597656 246.386719 225.648438 246.410156 225.699219 Z M 246.289062 225.425781 C 246.265625 225.375 246.246094 225.328125 246.226562 225.277344 C 246.246094 225.328125 246.269531 225.378906 246.289062 225.425781 Z M 246.171875 225.144531 C 246.152344 225.09375 246.136719 225.042969 246.117188 224.992188 C 246.136719 225.042969 246.152344 225.09375 246.171875 225.144531 Z M 246.070312 224.863281 C 246.050781 224.808594 246.03125 224.753906 246.011719 224.699219 C 246.03125 224.753906 246.050781 224.808594 246.070312 224.863281 Z M 245.964844 224.566406 C 245.949219 224.511719 245.933594 224.457031 245.914062 224.398438 C 245.929688 224.457031 245.949219 224.511719 245.964844 224.566406 Z M 245.875 224.269531 C 245.855469 224.207031 245.839844 224.148438 245.824219 224.085938 C 245.839844 224.148438 245.859375 224.207031 245.875 224.269531 Z M 245.785156 223.957031 C 245.769531 223.894531 245.753906 223.828125 245.734375 223.761719 C 245.75 223.828125 245.765625 223.894531 245.785156 223.957031 Z M 245.703125 223.640625 C 245.683594 223.558594 245.664062 223.480469 245.648438 223.402344 C 245.667969 223.480469 245.683594 223.558594 245.703125 223.640625 Z M 245.625 223.316406 C 245.601562 223.203125 245.578125 223.089844 245.558594 222.976562 C 245.578125 223.089844 245.601562 223.203125 245.625 223.316406 Z M 362.183594 205.347656 C 362.199219 205.464844 362.210938 205.578125 362.222656 205.695312 C 362.210938 205.582031 362.199219 205.464844 362.183594 205.347656 Z M 184.730469 184.296875 C 184.714844 184.183594 184.703125 184.074219 184.691406 183.96875 C 184.703125 184.074219 184.714844 184.183594 184.730469 184.296875 Z M 184.679688 183.863281 C 184.675781 183.785156 184.667969 183.710938 184.664062 183.636719 C 184.667969 183.714844 184.675781 183.785156 184.679688 183.863281 Z M 184.652344 183.527344 C 184.648438 183.457031 184.644531 183.382812 184.640625 183.308594 C 184.644531 183.382812 184.648438 183.457031 184.652344 183.527344 Z M 184.632812 183.203125 C 184.628906 183.109375 184.625 183.015625 184.621094 182.921875 C 184.625 183.015625 184.628906 183.105469 184.632812 183.203125 Z M 184.621094 182.882812 C 184.617188 182.789062 184.617188 182.695312 184.617188 182.597656 C 184.617188 182.695312 184.621094 182.789062 184.621094 182.882812 Z M 184.617188 182.488281 C 184.617188 182.421875 184.617188 182.355469 184.621094 182.289062 C 184.621094 182.355469 184.617188 182.421875 184.617188 182.488281 Z M 184.621094 182.1875 C 184.625 182.121094 184.625 182.054688 184.628906 181.984375 C 184.625 182.050781 184.621094 182.117188 184.621094 182.1875 Z M 184.632812 181.886719 C 184.640625 181.792969 184.648438 181.695312 184.652344 181.605469 L 184.652344 181.601562 C 184.660156 181.507812 184.667969 181.414062 184.679688 181.320312 C 184.667969 181.414062 184.660156 181.503906 184.652344 181.601562 Z M 184.667969 181.515625 C 184.675781 181.449219 184.683594 181.386719 184.691406 181.324219 C 184.679688 181.386719 184.675781 181.449219 184.667969 181.515625 Z M 184.703125 181.230469 C 184.714844 181.167969 184.722656 181.109375 184.730469 181.046875 C 184.722656 181.109375 184.714844 181.167969 184.703125 181.230469 Z M 184.75 180.949219 C 184.761719 180.871094 184.777344 180.792969 184.789062 180.71875 C 184.773438 180.792969 184.761719 180.871094 184.75 180.949219 Z M 184.796875 180.683594 C 184.8125 180.597656 184.832031 180.515625 184.851562 180.429688 C 184.832031 180.515625 184.8125 180.597656 184.796875 180.683594 Z M 184.867188 180.351562 C 184.886719 180.289062 184.898438 180.226562 184.914062 180.167969 C 184.898438 180.226562 184.882812 180.292969 184.867188 180.351562 Z M 184.9375 180.082031 C 184.953125 180.023438 184.96875 179.96875 184.984375 179.910156 C 184.96875 179.96875 184.953125 180.023438 184.9375 180.082031 Z M 185.007812 179.824219 C 185.03125 179.753906 185.054688 179.679688 185.074219 179.613281 C 185.054688 179.679688 185.03125 179.75 185.007812 179.824219 Z M 185.085938 179.582031 C 185.109375 179.503906 185.140625 179.425781 185.167969 179.34375 C 185.140625 179.425781 185.109375 179.503906 185.085938 179.582031 Z M 185.191406 179.269531 C 185.210938 179.21875 185.234375 179.164062 185.253906 179.109375 C 185.230469 179.164062 185.210938 179.21875 185.191406 179.269531 Z M 185.292969 179.019531 C 185.3125 178.972656 185.332031 178.921875 185.351562 178.875 C 185.332031 178.921875 185.3125 178.972656 185.292969 179.019531 Z M 185.386719 178.792969 C 185.414062 178.726562 185.445312 178.660156 185.476562 178.59375 C 185.445312 178.65625 185.414062 178.726562 185.386719 178.792969 Z M 185.488281 178.566406 C 185.523438 178.492188 185.558594 178.417969 185.597656 178.351562 C 185.558594 178.421875 185.523438 178.492188 185.488281 178.566406 Z M 185.628906 178.285156 C 185.652344 178.234375 185.683594 178.183594 185.707031 178.132812 C 185.679688 178.183594 185.652344 178.234375 185.628906 178.285156 Z M 185.753906 178.054688 C 185.777344 178.007812 185.804688 177.960938 185.832031 177.914062 C 185.804688 177.960938 185.777344 178.007812 185.753906 178.054688 Z M 185.871094 177.84375 C 185.90625 177.785156 185.941406 177.726562 185.980469 177.667969 C 185.941406 177.726562 185.90625 177.789062 185.871094 177.84375 Z M 186 177.636719 C 186.042969 177.570312 186.085938 177.503906 186.128906 177.4375 C 186.085938 177.503906 186.042969 177.566406 186 177.636719 Z M 186.175781 177.378906 C 186.207031 177.332031 186.234375 177.289062 186.265625 177.246094 C 186.234375 177.292969 186.203125 177.335938 186.175781 177.378906 Z M 186.324219 177.171875 C 186.355469 177.128906 186.382812 177.089844 186.417969 177.046875 C 186.382812 177.089844 186.351562 177.128906 186.324219 177.171875 Z M 186.46875 176.980469 C 186.507812 176.929688 186.546875 176.878906 186.589844 176.828125 C 186.546875 176.878906 186.503906 176.929688 186.46875 176.980469 Z M 186.617188 176.792969 C 186.667969 176.734375 186.71875 176.671875 186.769531 176.613281 C 186.71875 176.675781 186.667969 176.734375 186.617188 176.792969 Z M 186.816406 176.558594 C 186.855469 176.515625 186.894531 176.476562 186.929688 176.429688 C 186.894531 176.472656 186.855469 176.511719 186.816406 176.558594 Z M 186.984375 176.375 C 187.023438 176.335938 187.058594 176.292969 187.097656 176.257812 C 187.058594 176.292969 187.019531 176.332031 186.984375 176.375 Z M 187.152344 176.195312 C 187.203125 176.144531 187.253906 176.09375 187.304688 176.046875 C 187.253906 176.097656 187.203125 176.144531 187.152344 176.195312 Z M 187.320312 176.03125 C 187.375 175.976562 187.433594 175.917969 187.492188 175.863281 C 187.433594 175.917969 187.375 175.972656 187.320312 176.03125 Z M 187.546875 175.816406 C 187.589844 175.777344 187.628906 175.746094 187.671875 175.707031 C 187.628906 175.742188 187.589844 175.777344 187.546875 175.816406 Z M 187.734375 175.652344 C 187.78125 175.613281 187.820312 175.578125 187.867188 175.539062 C 187.820312 175.574219 187.777344 175.613281 187.734375 175.652344 Z M 187.917969 175.496094 C 187.972656 175.453125 188.027344 175.410156 188.082031 175.367188 C 188.027344 175.40625 187.972656 175.453125 187.917969 175.496094 Z M 188.109375 175.34375 C 188.171875 175.296875 188.238281 175.246094 188.300781 175.199219 C 188.238281 175.246094 188.171875 175.292969 188.109375 175.34375 Z M 188.359375 175.15625 C 188.40625 175.121094 188.453125 175.085938 188.503906 175.050781 C 188.457031 175.085938 188.40625 175.121094 188.359375 175.15625 Z M 188.5625 175.007812 C 188.613281 174.976562 188.660156 174.941406 188.707031 174.910156 C 188.660156 174.941406 188.613281 174.976562 188.5625 175.007812 Z M 188.769531 174.863281 C 188.824219 174.824219 188.882812 174.792969 188.9375 174.757812 C 188.882812 174.792969 188.828125 174.828125 188.769531 174.863281 Z M 188.976562 174.730469 C 189.046875 174.6875 189.113281 174.644531 189.183594 174.601562 C 189.113281 174.640625 189.042969 174.6875 188.976562 174.730469 Z M 189.242188 174.570312 C 189.296875 174.535156 189.347656 174.503906 189.402344 174.472656 C 189.347656 174.503906 189.296875 174.535156 189.242188 174.570312 Z M 189.46875 174.433594 C 189.519531 174.40625 189.570312 174.378906 189.621094 174.347656 C 189.570312 174.378906 189.519531 174.40625 189.46875 174.433594 Z M 189.695312 174.304688 C 189.753906 174.273438 189.808594 174.242188 189.867188 174.210938 C 189.808594 174.246094 189.753906 174.273438 189.695312 174.304688 Z M 189.914062 174.1875 C 189.988281 174.148438 190.0625 174.109375 190.136719 174.074219 C 190.0625 174.109375 189.988281 174.148438 189.914062 174.1875 Z M 190.199219 174.042969 C 190.257812 174.015625 190.316406 173.988281 190.371094 173.960938 C 190.316406 173.992188 190.257812 174.015625 190.199219 174.042969 Z M 190.4375 173.929688 C 190.492188 173.902344 190.554688 173.875 190.609375 173.847656 C 190.550781 173.871094 190.492188 173.902344 190.4375 173.929688 Z M 190.675781 173.820312 C 190.746094 173.785156 190.824219 173.753906 190.898438 173.71875 C 190.820312 173.753906 190.746094 173.785156 190.675781 173.820312 Z M 190.90625 173.71875 C 190.988281 173.683594 191.070312 173.648438 191.152344 173.613281 C 191.070312 173.648438 190.984375 173.679688 190.90625 173.71875 Z M 191.203125 173.59375 C 191.265625 173.566406 191.328125 173.542969 191.390625 173.515625 C 191.328125 173.542969 191.265625 173.566406 191.203125 173.59375 Z M 191.46875 173.488281 C 191.527344 173.464844 191.582031 173.445312 191.640625 173.425781 Z M 166.769531 177.898438 C 166.804688 177.90625 166.839844 177.90625 166.875 177.914062 C 166.839844 177.90625 166.804688 177.902344 166.769531 177.898438 Z M 167.105469 177.960938 C 167.136719 177.964844 167.171875 177.972656 167.199219 177.976562 C 167.167969 177.972656 167.136719 177.964844 167.105469 177.960938 Z M 167.402344 178.027344 C 167.425781 178.035156 167.453125 178.042969 167.476562 178.050781 C 167.453125 178.042969 167.425781 178.039062 167.402344 178.027344 Z M 167.8125 178.15625 C 167.839844 178.164062 167.871094 178.175781 167.898438 178.1875 C 167.871094 178.179688 167.839844 178.164062 167.8125 178.15625 Z M 167.945312 178.203125 C 167.972656 178.214844 168.003906 178.226562 168.035156 178.238281 C 168.003906 178.226562 167.976562 178.214844 167.945312 178.203125 Z M 168.078125 178.257812 C 168.109375 178.269531 168.140625 178.285156 168.175781 178.300781 C 168.140625 178.285156 168.109375 178.269531 168.078125 178.257812 Z M 168.210938 178.316406 C 168.25 178.332031 168.296875 178.351562 168.335938 178.375 C 168.296875 178.355469 168.253906 178.332031 168.210938 178.316406 Z M 168.382812 178.402344 C 168.414062 178.414062 168.4375 178.429688 168.464844 178.441406 C 168.4375 178.425781 168.414062 178.414062 168.382812 178.402344 Z M 168.511719 178.46875 C 168.539062 178.484375 168.566406 178.496094 168.59375 178.511719 C 168.566406 178.496094 168.539062 178.480469 168.511719 178.46875 Z M 168.640625 178.539062 C 168.667969 178.554688 168.691406 178.574219 168.71875 178.585938 C 168.691406 178.570312 168.667969 178.554688 168.640625 178.539062 Z M 169.128906 178.871094 C 169.152344 178.890625 169.175781 178.90625 169.199219 178.925781 C 169.175781 178.90625 169.152344 178.890625 169.128906 178.871094 Z M 169.25 178.964844 C 169.273438 178.988281 169.300781 179.007812 169.324219 179.03125 C 169.300781 179.007812 169.273438 178.984375 169.25 178.964844 Z M 169.359375 179.0625 C 169.398438 179.097656 169.4375 179.132812 169.472656 179.167969 C 169.4375 179.132812 169.398438 179.097656 169.359375 179.0625 Z M 169.472656 179.167969 C 169.507812 179.203125 169.542969 179.234375 169.578125 179.269531 C 169.542969 179.238281 169.507812 179.203125 169.472656 179.167969 Z M 169.617188 179.308594 C 169.640625 179.335938 169.664062 179.359375 169.6875 179.386719 C 169.664062 179.359375 169.640625 179.335938 169.617188 179.308594 Z M 169.726562 179.425781 C 169.746094 179.449219 169.769531 179.476562 169.789062 179.5 C 169.765625 179.476562 169.742188 179.453125 169.726562 179.425781 Z M 170.035156 179.804688 C 170.054688 179.832031 170.074219 179.859375 170.09375 179.882812 C 170.074219 179.859375 170.054688 179.832031 170.035156 179.804688 Z M 170.132812 179.933594 C 170.152344 179.964844 170.171875 179.996094 170.195312 180.027344 C 170.171875 179.996094 170.152344 179.96875 170.132812 179.933594 Z M 170.226562 180.074219 C 170.253906 180.113281 170.277344 180.15625 170.304688 180.191406 C 170.277344 180.152344 170.253906 180.113281 170.226562 180.074219 Z M 170.425781 180.402344 C 170.449219 180.445312 170.476562 180.480469 170.496094 180.527344 C 170.476562 180.484375 170.453125 180.445312 170.425781 180.402344 Z M 170.523438 180.578125 C 170.542969 180.613281 170.558594 180.648438 170.578125 180.683594 C 170.558594 180.648438 170.539062 180.613281 170.523438 180.578125 Z M 170.609375 180.753906 C 170.628906 180.785156 170.644531 180.816406 170.660156 180.851562 C 170.644531 180.820312 170.628906 180.785156 170.609375 180.753906 Z M 170.691406 180.921875 C 170.707031 180.957031 170.722656 180.988281 170.738281 181.023438 Z M 170.847656 181.28125 C 170.863281 181.316406 170.875 181.355469 170.890625 181.394531 C 170.875 181.355469 170.863281 181.316406 170.847656 181.28125 Z M 170.917969 181.460938 C 170.933594 181.5 170.945312 181.539062 170.960938 181.582031 C 170.945312 181.539062 170.933594 181.503906 170.917969 181.460938 Z M 170.988281 181.65625 C 171.003906 181.699219 171.019531 181.742188 171.035156 181.789062 C 171.019531 181.742188 171.003906 181.703125 170.988281 181.65625 Z M 171.121094 182.058594 C 171.140625 182.125 171.160156 182.195312 171.179688 182.265625 C 171.160156 182.195312 171.140625 182.125 171.121094 182.058594 Z M 171.203125 182.347656 C 171.214844 182.390625 171.222656 182.4375 171.238281 182.480469 C 171.222656 182.4375 171.214844 182.390625 171.203125 182.347656 Z M 171.257812 182.570312 C 171.273438 182.613281 171.28125 182.660156 171.292969 182.707031 C 171.28125 182.660156 171.269531 182.613281 171.257812 182.570312 Z M 171.3125 182.789062 C 171.324219 182.835938 171.335938 182.882812 171.34375 182.933594 C 171.335938 182.882812 171.324219 182.835938 171.3125 182.789062 Z M 171.410156 183.269531 C 171.421875 183.3125 171.429688 183.359375 171.4375 183.402344 Z M 171.457031 183.515625 C 171.464844 183.566406 171.472656 183.617188 171.480469 183.667969 C 171.472656 183.617188 171.464844 183.566406 171.457031 183.515625 Z M 171.496094 183.753906 C 171.503906 183.816406 171.515625 183.871094 171.519531 183.933594 C 171.511719 183.871094 171.503906 183.8125 171.496094 183.753906 Z M 171.566406 184.277344 C 171.578125 184.367188 171.585938 184.457031 171.597656 184.546875 C 171.585938 184.457031 171.578125 184.367188 171.566406 184.277344 Z M 171.609375 184.652344 C 171.617188 184.710938 171.617188 184.765625 171.625 184.824219 C 171.617188 184.765625 171.617188 184.707031 171.609375 184.652344 Z M 171.632812 184.9375 C 171.640625 184.992188 171.644531 185.054688 171.648438 185.113281 C 171.644531 185.054688 171.636719 184.996094 171.632812 184.9375 Z M 171.691406 185.835938 C 171.695312 185.894531 171.695312 185.949219 171.699219 186.003906 C 171.695312 185.949219 171.695312 185.890625 171.691406 185.835938 Z M 171.703125 186.140625 C 171.703125 186.207031 171.703125 186.277344 171.707031 186.347656 C 171.707031 186.277344 171.703125 186.210938 171.703125 186.140625 Z M 171.707031 186.445312 C 171.707031 186.527344 171.710938 186.613281 171.710938 186.695312 C 171.710938 186.613281 171.710938 186.527344 171.707031 186.445312 Z M 171.710938 186.773438 C 171.710938 186.882812 171.710938 186.992188 171.710938 187.105469 C 171.710938 186.992188 171.710938 186.882812 171.710938 186.773438 Z M 132.117188 204.9375 C 132.070312 204.945312 132.023438 204.953125 131.980469 204.957031 C 132.023438 204.953125 132.070312 204.945312 132.117188 204.9375 Z M 131.941406 204.964844 C 131.910156 204.96875 131.878906 204.972656 131.84375 204.976562 C 131.878906 204.972656 131.910156 204.96875 131.941406 204.964844 Z M 131.796875 204.984375 C 131.765625 204.988281 131.734375 204.992188 131.703125 204.992188 C 131.734375 204.992188 131.765625 204.988281 131.796875 204.984375 Z M 131.664062 204.996094 C 131.621094 205 131.578125 205.003906 131.535156 205.007812 C 131.578125 205.003906 131.621094 205 131.664062 204.996094 Z M 131.507812 205.007812 C 131.472656 205.007812 131.4375 205.007812 131.402344 205.007812 C 131.4375 205.007812 131.472656 205.007812 131.507812 205.007812 Z M 131.222656 205.007812 C 131.191406 205.007812 131.160156 205.007812 131.125 205.007812 C 131.15625 205.007812 131.1875 205.007812 131.222656 205.007812 Z M 131.097656 205.007812 C 131.054688 205.003906 131.011719 205.003906 130.96875 204.996094 C 131.007812 205 131.054688 205.003906 131.097656 205.007812 Z M 130.941406 204.996094 C 130.910156 204.992188 130.875 204.992188 130.84375 204.988281 C 130.875 204.992188 130.910156 204.992188 130.941406 204.996094 Z M 130.675781 204.964844 C 130.644531 204.957031 130.617188 204.957031 130.582031 204.949219 C 130.617188 204.957031 130.644531 204.960938 130.675781 204.964844 Z M 130.550781 204.941406 C 130.511719 204.9375 130.46875 204.925781 130.429688 204.917969 C 130.472656 204.925781 130.511719 204.9375 130.550781 204.941406 Z M 130.410156 204.910156 C 130.378906 204.90625 130.34375 204.894531 130.3125 204.886719 C 130.34375 204.894531 130.375 204.902344 130.410156 204.910156 Z M 130.269531 204.875 C 130.242188 204.871094 130.21875 204.859375 130.191406 204.855469 C 130.214844 204.859375 130.242188 204.871094 130.269531 204.875 Z M 130.148438 204.839844 C 130.121094 204.832031 130.089844 204.820312 130.0625 204.8125 C 130.089844 204.820312 130.121094 204.832031 130.148438 204.839844 Z M 130.03125 204.804688 C 129.992188 204.789062 129.953125 204.773438 129.917969 204.761719 C 129.953125 204.777344 129.992188 204.789062 130.03125 204.804688 Z M 129.886719 204.75 C 129.859375 204.734375 129.832031 204.726562 129.804688 204.714844 C 129.832031 204.726562 129.859375 204.734375 129.886719 204.75 Z M 129.765625 204.695312 C 129.738281 204.683594 129.714844 204.667969 129.683594 204.660156 C 129.710938 204.671875 129.734375 204.683594 129.765625 204.695312 Z M 129.652344 204.644531 C 129.617188 204.628906 129.582031 204.609375 129.546875 204.589844 C 129.582031 204.609375 129.617188 204.625 129.652344 204.644531 Z M 129.542969 204.585938 C 129.503906 204.566406 129.46875 204.546875 129.429688 204.523438 C 129.46875 204.546875 129.503906 204.566406 129.542969 204.585938 Z M 129.402344 204.507812 C 129.375 204.492188 129.347656 204.476562 129.324219 204.460938 C 129.347656 204.476562 129.375 204.492188 129.402344 204.507812 Z M 129.285156 204.433594 C 129.257812 204.417969 129.238281 204.402344 129.210938 204.386719 C 129.238281 204.402344 129.257812 204.417969 129.285156 204.433594 Z M 129.179688 204.363281 C 129.148438 204.34375 129.117188 204.324219 129.085938 204.300781 C 129.117188 204.324219 129.148438 204.34375 129.179688 204.363281 Z M 129.070312 204.289062 C 129.035156 204.261719 129.003906 204.238281 128.972656 204.210938 C 129.003906 204.238281 129.039062 204.261719 129.070312 204.289062 Z M 128.945312 204.191406 C 128.917969 204.171875 128.898438 204.152344 128.871094 204.128906 C 128.898438 204.148438 128.917969 204.171875 128.945312 204.191406 Z M 128.835938 204.101562 C 128.8125 204.078125 128.789062 204.058594 128.761719 204.039062 C 128.789062 204.058594 128.8125 204.082031 128.835938 204.101562 Z M 128.738281 204.011719 C 128.707031 203.984375 128.675781 203.953125 128.640625 203.921875 C 128.675781 203.953125 128.707031 203.984375 128.738281 204.011719 Z M 128.625 203.90625 C 128.597656 203.878906 128.570312 203.851562 128.539062 203.820312 C 128.570312 203.851562 128.597656 203.878906 128.625 203.90625 Z M 128.515625 203.792969 C 128.492188 203.765625 128.472656 203.746094 128.449219 203.71875 C 128.472656 203.746094 128.492188 203.769531 128.515625 203.792969 Z M 128.417969 203.683594 C 128.394531 203.660156 128.371094 203.632812 128.351562 203.609375 C 128.371094 203.632812 128.394531 203.660156 128.417969 203.683594 Z M 128.320312 203.578125 C 128.292969 203.542969 128.261719 203.503906 128.234375 203.46875 C 128.261719 203.507812 128.289062 203.542969 128.320312 203.578125 Z M 128.21875 203.449219 C 128.195312 203.417969 128.171875 203.386719 128.148438 203.355469 C 128.167969 203.386719 128.195312 203.417969 128.21875 203.449219 Z M 128.117188 203.316406 C 128.097656 203.289062 128.078125 203.257812 128.054688 203.230469 C 128.074219 203.257812 128.097656 203.289062 128.117188 203.316406 Z M 128.03125 203.195312 C 128.011719 203.164062 127.988281 203.128906 127.960938 203.09375 C 127.984375 203.128906 128.007812 203.160156 128.03125 203.195312 Z M 127.945312 203.070312 C 127.917969 203.03125 127.890625 202.984375 127.863281 202.941406 C 127.890625 202.984375 127.917969 203.027344 127.945312 203.070312 Z M 127.84375 202.914062 C 127.824219 202.878906 127.804688 202.84375 127.785156 202.8125 C 127.804688 202.84375 127.824219 202.878906 127.84375 202.914062 Z M 127.753906 202.757812 C 127.738281 202.730469 127.722656 202.703125 127.707031 202.675781 Z M 127.601562 202.476562 C 127.578125 202.433594 127.550781 202.386719 127.53125 202.335938 C 127.550781 202.386719 127.578125 202.433594 127.601562 202.476562 Z M 127.511719 202.296875 C 127.492188 202.257812 127.476562 202.21875 127.457031 202.179688 C 127.476562 202.21875 127.492188 202.257812 127.511719 202.296875 Z M 127.433594 202.136719 C 127.417969 202.097656 127.398438 202.0625 127.382812 202.027344 C 127.398438 202.0625 127.414062 202.101562 127.433594 202.136719 Z M 127.363281 201.976562 C 127.34375 201.929688 127.324219 201.886719 127.304688 201.839844 C 127.324219 201.886719 127.34375 201.929688 127.363281 201.976562 Z M 127.296875 201.816406 C 127.273438 201.761719 127.25 201.703125 127.226562 201.648438 C 127.25 201.703125 127.273438 201.757812 127.296875 201.816406 Z M 127.089844 201.25 C 127.070312 201.191406 127.050781 201.136719 127.035156 201.078125 C 127.054688 201.136719 127.074219 201.191406 127.089844 201.25 Z M 127.027344 201.066406 C 127.007812 201.003906 126.988281 200.945312 126.972656 200.882812 C 126.988281 200.945312 127.007812 201.003906 127.027344 201.066406 Z M 126.960938 200.847656 C 126.949219 200.800781 126.933594 200.75 126.921875 200.699219 C 126.933594 200.75 126.949219 200.800781 126.960938 200.847656 Z M 126.902344 200.632812 C 126.886719 200.589844 126.875 200.542969 126.867188 200.492188 C 126.878906 200.542969 126.890625 200.585938 126.902344 200.632812 Z M 126.851562 200.441406 C 126.835938 200.375 126.820312 200.308594 126.800781 200.242188 Z M 143.476562 243.894531 C 143.425781 243.839844 143.375 243.78125 143.324219 243.722656 C 143.375 243.78125 143.425781 243.839844 143.476562 243.894531 Z M 143.320312 243.71875 C 143.269531 243.660156 143.222656 243.605469 143.171875 243.542969 C 143.21875 243.605469 143.269531 243.660156 143.320312 243.71875 Z M 143.164062 243.535156 C 143.117188 243.472656 143.066406 243.414062 143.015625 243.351562 C 143.066406 243.414062 143.113281 243.472656 143.164062 243.535156 Z M 143.015625 243.351562 C 142.964844 243.289062 142.917969 243.226562 142.871094 243.164062 C 142.917969 243.226562 142.964844 243.285156 143.015625 243.351562 Z M 142.863281 243.15625 C 142.816406 243.09375 142.773438 243.027344 142.726562 242.964844 C 142.773438 243.027344 142.820312 243.09375 142.863281 243.15625 Z M 142.722656 242.957031 C 142.675781 242.890625 142.628906 242.824219 142.585938 242.757812 C 142.628906 242.824219 142.675781 242.890625 142.722656 242.957031 Z M 142.585938 242.757812 C 142.539062 242.691406 142.496094 242.621094 142.453125 242.550781 C 142.496094 242.621094 142.539062 242.691406 142.585938 242.757812 Z M 142.449219 242.550781 C 142.402344 242.480469 142.363281 242.410156 142.320312 242.339844 C 142.363281 242.410156 142.40625 242.480469 142.449219 242.550781 Z M 142.320312 242.332031 C 142.277344 242.261719 142.234375 242.191406 142.195312 242.121094 C 142.234375 242.191406 142.277344 242.261719 142.320312 242.332031 Z M 142.195312 242.117188 C 142.152344 242.042969 142.113281 241.972656 142.078125 241.902344 C 142.113281 241.972656 142.15625 242.046875 142.195312 242.117188 Z M 142.070312 241.890625 C 142.03125 241.816406 141.996094 241.746094 141.957031 241.667969 C 141.996094 241.746094 142.03125 241.816406 142.070312 241.890625 Z M 141.953125 241.664062 C 141.914062 241.589844 141.878906 241.511719 141.84375 241.4375 C 141.878906 241.511719 141.917969 241.589844 141.953125 241.664062 Z M 141.839844 241.425781 C 141.804688 241.351562 141.769531 241.273438 141.734375 241.195312 C 141.769531 241.273438 141.804688 241.351562 141.839844 241.425781 Z M 141.730469 241.1875 C 141.695312 241.109375 141.660156 241.03125 141.628906 240.949219 C 141.660156 241.03125 141.695312 241.109375 141.730469 241.1875 Z M 141.628906 240.945312 C 141.597656 240.863281 141.5625 240.78125 141.53125 240.699219 C 141.5625 240.78125 141.59375 240.863281 141.628906 240.945312 Z M 141.53125 240.691406 C 141.5 240.609375 141.46875 240.523438 141.4375 240.4375 C 141.46875 240.523438 141.5 240.609375 141.53125 240.691406 Z M 141.433594 240.4375 C 141.40625 240.351562 141.375 240.265625 141.347656 240.183594 C 141.375 240.265625 141.402344 240.351562 141.433594 240.4375 Z M 141.34375 240.175781 C 141.3125 240.089844 141.289062 240.003906 141.261719 239.917969 C 141.285156 240.003906 141.3125 240.089844 141.34375 240.175781 Z M 141.257812 239.902344 C 141.230469 239.816406 141.207031 239.726562 141.179688 239.636719 C 141.207031 239.726562 141.230469 239.8125 141.257812 239.902344 Z M 141.179688 239.632812 C 141.152344 239.542969 141.128906 239.457031 141.105469 239.363281 C 141.125 239.453125 141.152344 239.542969 141.179688 239.632812 Z M 141.105469 239.359375 C 141.078125 239.265625 141.058594 239.175781 141.035156 239.078125 C 141.058594 239.175781 141.078125 239.265625 141.105469 239.359375 Z M 184.636719 182.382812 C 184.644531 182.285156 184.648438 182.191406 184.65625 182.097656 Z M 171.628906 185.15625 L 171.617188 185.046875 Z M 171.597656 184.890625 L 171.597656 184.886719 C 171.589844 184.796875 171.578125 184.710938 171.566406 184.625 L 171.554688 184.539062 Z M 171.277344 183.300781 L 171.257812 183.21875 Z M 171.21875 183.09375 L 171.21875 183.089844 C 171.199219 183.023438 171.175781 182.953125 171.15625 182.890625 L 171.132812 182.824219 Z M 170.609375 181.707031 L 170.589844 181.675781 L 170.585938 181.671875 C 170.558594 181.621094 170.527344 181.570312 170.496094 181.523438 L 170.480469 181.503906 Z M 170.609375 181.707031 " fill-opacity="1" fill-rule="evenodd"/><g clip-path="url(#1973f29680)"><path fill="#8c52ff" d="M 262.558594 292.207031 C 267.761719 252.769531 267.765625 252.816406 303.859375 247.539062 C 322.46875 244.816406 341.027344 241.726562 359.65625 239.164062 C 366.363281 238.242188 374.183594 237.542969 374.917969 247.273438 C 375.574219 256.003906 368.875 258.183594 361.746094 259.320312 C 343.175781 262.285156 324.691406 265.957031 306.03125 268.164062 C 290.96875 269.949219 283.394531 275.015625 285.945312 292.253906 C 287.441406 302.410156 295.566406 316.863281 281.722656 323.25 C 268.898438 329.167969 260.585938 315.527344 253.753906 307.886719 C 232.640625 284.257812 208.671875 282.714844 179.46875 289.253906 C 138.820312 298.359375 104.050781 287.863281 80.179688 249.910156 C 61.941406 220.90625 42.75 192.304688 21.691406 165.3125 C -26.085938 104.089844 10.964844 52.328125 76.464844 42.359375 C 120.890625 35.597656 166.148438 34.320312 211.019531 30.4375 C 218.34375 29.804688 224.027344 32.855469 229.519531 36.953125 C 259.710938 59.460938 289.925781 81.945312 320.109375 104.472656 C 324.835938 108.003906 331.507812 110.832031 329.351562 118.367188 C 327.308594 125.511719 320.359375 125.339844 314.441406 126.253906 C 261.335938 134.472656 208.203125 142.523438 155.140625 150.988281 C 104.710938 159.035156 82.039062 208.570312 111.152344 246.691406 C 123.488281 262.84375 140.265625 269.832031 160.324219 269.535156 C 161.65625 269.511719 162.976562 269.089844 164.3125 268.953125 C 198.941406 265.359375 236.050781 247.492188 262.558594 292.210938 Z M 262.558594 292.207031 " fill-opacity="1" fill-rule="evenodd"/></g><g clip-path="url(#50bad005a7)"><path fill="#022234" d="M 362.066406 339.925781 C 362.066406 340.078125 361.933594 340.234375 361.660156 340.386719 C 361.390625 340.542969 360.984375 340.695312 360.445312 340.847656 C 359.902344 340.996094 359.230469 341.148438 358.429688 341.296875 C 357.625 341.441406 356.691406 341.589844 355.632812 341.730469 C 354.574219 341.875 353.390625 342.015625 352.085938 342.152344 C 350.78125 342.285156 349.359375 342.417969 347.824219 342.546875 C 346.285156 342.675781 344.636719 342.800781 342.882812 342.921875 C 341.125 343.039062 339.269531 343.152344 337.3125 343.261719 C 335.351562 343.371094 333.304688 343.476562 331.164062 343.574219 C 329.023438 343.671875 326.804688 343.765625 324.5 343.851562 C 322.199219 343.9375 319.828125 344.015625 317.386719 344.089844 C 314.945312 344.160156 312.445312 344.226562 309.886719 344.285156 C 307.332031 344.347656 304.726562 344.398438 302.078125 344.441406 C 299.429688 344.488281 296.746094 344.527344 294.03125 344.554688 C 291.316406 344.585938 288.582031 344.609375 285.828125 344.625 C 283.070312 344.640625 280.308594 344.644531 277.542969 344.644531 C 274.773438 344.644531 272.011719 344.640625 269.257812 344.625 C 266.503906 344.609375 263.765625 344.585938 261.050781 344.554688 C 258.335938 344.527344 255.65625 344.488281 253.003906 344.441406 C 250.355469 344.398438 247.753906 344.347656 245.195312 344.285156 C 242.636719 344.226562 240.136719 344.160156 237.695312 344.089844 C 235.253906 344.015625 232.882812 343.9375 230.582031 343.851562 C 228.28125 343.765625 226.058594 343.671875 223.917969 343.574219 C 221.78125 343.476562 219.730469 343.371094 217.773438 343.261719 C 215.816406 343.152344 213.957031 343.039062 212.203125 342.921875 C 210.445312 342.800781 208.800781 342.675781 207.261719 342.546875 C 205.722656 342.417969 204.300781 342.285156 202.996094 342.152344 C 201.691406 342.015625 200.507812 341.875 199.449219 341.730469 C 198.390625 341.589844 197.460938 341.441406 196.65625 341.296875 C 195.851562 341.148438 195.179688 340.996094 194.640625 340.847656 C 194.101562 340.695312 193.695312 340.542969 193.421875 340.386719 C 193.152344 340.234375 193.015625 340.078125 193.015625 339.925781 C 193.015625 339.769531 193.152344 339.617188 193.421875 339.460938 C 193.695312 339.308594 194.101562 339.15625 194.640625 339.003906 C 195.179688 338.851562 195.851562 338.703125 196.65625 338.554688 C 197.460938 338.40625 198.390625 338.261719 199.449219 338.117188 C 200.507812 337.976562 201.691406 337.835938 202.996094 337.699219 C 204.300781 337.5625 205.722656 337.429688 207.261719 337.300781 C 208.800781 337.171875 210.445312 337.046875 212.203125 336.929688 C 213.957031 336.808594 215.816406 336.695312 217.773438 336.585938 C 219.730469 336.476562 221.78125 336.371094 223.917969 336.273438 C 226.058594 336.175781 228.28125 336.085938 230.582031 336 C 232.882812 335.914062 235.253906 335.832031 237.695312 335.761719 C 240.136719 335.6875 242.636719 335.621094 245.195312 335.5625 C 247.753906 335.503906 250.355469 335.449219 253.003906 335.40625 C 255.65625 335.359375 258.335938 335.324219 261.050781 335.292969 C 263.765625 335.261719 266.503906 335.242188 269.257812 335.226562 C 272.011719 335.210938 274.773438 335.203125 277.542969 335.203125 C 280.308594 335.203125 283.070312 335.210938 285.828125 335.226562 C 288.582031 335.242188 291.316406 335.261719 294.03125 335.292969 C 296.746094 335.324219 299.429688 335.359375 302.078125 335.40625 C 304.726562 335.449219 307.332031 335.503906 309.886719 335.5625 C 312.445312 335.621094 314.945312 335.6875 317.386719 335.761719 C 319.828125 335.832031 322.199219 335.914062 324.5 336 C 326.804688 336.085938 329.023438 336.175781 331.164062 336.273438 C 333.304688 336.371094 335.351562 336.476562 337.3125 336.585938 C 339.269531 336.695312 341.125 336.808594 342.882812 336.929688 C 344.636719 337.046875 346.285156 337.171875 347.824219 337.300781 C 349.359375 337.429688 350.78125 337.5625 352.085938 337.699219 C 353.390625 337.835938 354.574219 337.976562 355.632812 338.117188 C 356.691406 338.261719 357.625 338.40625 358.429688 338.554688 C 359.230469 338.703125 359.902344 338.851562 360.445312 339.003906 C 360.984375 339.15625 361.390625 339.308594 361.660156 339.460938 C 361.933594 339.617188 362.066406 339.769531 362.066406 339.925781 Z M 362.066406 339.925781 " fill-opacity="1" fill-rule="nonzero"/></g></svg>